REM DIRINDEX 1\2,1\3
REM DIRNAME folder01,folder02,folder03
TITLE ""
FILE "Disk3Track24.mp3" MP3
  TRACK 01 AUDIO
    TITLE "2:cjc052_1271"
    INDEX 01 00:00:00
  TRACK 02 AUDIO
    TITLE "2:cjc052_1272"
    INDEX 01 00:05:73
  TRACK 03 AUDIO
    TITLE "2:cjc052_1273"
    INDEX 01 00:15:46
  TRACK 04 AUDIO
    TITLE "2:cjc052_1274"
    INDEX 01 00:29:17
  TRACK 05 AUDIO
    TITLE "2:cjc052_1275"
    INDEX 01 00:41:59
  TRACK 06 AUDIO
    TITLE "0:"
    INDEX 01 00:49:61
